<svg xmlns="http://www.w3.org/2000/svg" xmlns:xlink="http://www.w3.org/1999/xlink" width="500" zoomAndPan="magnify" viewBox="0 0 375 374.999991" height="500" preserveAspectRatio="xMidYMid meet" version="1.0"><defs><g/><clipPath id="e2380b9fa9"><path d="M 289 171 L 316 171 L 316 199 L 289 199 Z M 289 171 " clip-rule="nonzero"/></clipPath><clipPath id="94130409e8"><path d="M 283.601562 175.996094 L 302.328125 158.6875 L 328.292969 186.777344 L 309.566406 204.085938 Z M 283.601562 175.996094 " clip-rule="nonzero"/></clipPath><clipPath id="dd311c0628"><path d="M 283.601562 175.996094 L 302.328125 158.6875 L 328.292969 186.777344 L 309.566406 204.085938 Z M 283.601562 175.996094 " clip-rule="nonzero"/></clipPath><clipPath id="965187243a"><path d="M 302 159 L 329 159 L 329 187 L 302 187 Z M 302 159 " clip-rule="nonzero"/></clipPath><clipPath id="4d0de8e842"><path d="M 297.089844 163.53125 L 315.816406 146.222656 L 341.78125 174.3125 L 323.054688 191.621094 Z M 297.089844 163.53125 " clip-rule="nonzero"/></clipPath><clipPath id="921ad2e5ce"><path d="M 297.089844 163.53125 L 315.816406 146.222656 L 341.78125 174.3125 L 323.054688 191.621094 Z M 297.089844 163.53125 " clip-rule="nonzero"/></clipPath></defs><g clip-path="url(#e2380b9fa9)"><g clip-path="url(#94130409e8)"><g clip-path="url(#dd311c0628)"><path fill="#8ac44f" d="M 315.46875 172.886719 L 292.679688 171.875 C 288.28125 171.679688 287.535156 180.253906 292.75 180.394531 L 306.929688 180.777344 L 305.847656 195.046875 C 305.519531 199.390625 313.992188 199.847656 314.234375 195.433594 Z M 315.46875 172.886719 " fill-opacity="1" fill-rule="nonzero"/></g></g></g><g clip-path="url(#965187243a)"><g clip-path="url(#4d0de8e842)"><g clip-path="url(#921ad2e5ce)"><path fill="#32462f" d="M 328.957031 160.421875 L 306.167969 159.410156 C 301.769531 159.210938 301.023438 167.785156 306.238281 167.925781 L 320.417969 168.3125 L 319.335938 182.578125 C 319.007812 186.921875 327.480469 187.382812 327.722656 182.96875 Z M 328.957031 160.421875 " fill-opacity="1" fill-rule="nonzero"/></g></g></g><g fill="#373643" fill-opacity="1"><g transform="translate(74.097159, 212.426718)"><g><path d="M 17.703125 -32.71875 C 20.191406 -32.71875 22.5 -32.34375 24.625 -31.59375 C 26.75 -30.851562 28.632812 -29.554688 30.28125 -27.703125 C 30.957031 -26.929688 31.253906 -26.191406 31.171875 -25.484375 C 31.085938 -24.773438 30.765625 -24.203125 30.203125 -23.765625 C 29.648438 -23.328125 28.992188 -23.125 28.234375 -23.15625 C 27.472656 -23.1875 26.757812 -23.554688 26.09375 -24.265625 C 24.84375 -25.648438 23.515625 -26.546875 22.109375 -26.953125 C 20.710938 -27.359375 19.222656 -27.5625 17.640625 -27.5625 C 15.515625 -27.5625 13.648438 -27.097656 12.046875 -26.171875 C 10.453125 -25.242188 9.207031 -23.953125 8.3125 -22.296875 C 7.425781 -20.648438 6.984375 -18.710938 6.984375 -16.484375 C 6.984375 -14.117188 7.4375 -12.039062 8.34375 -10.25 C 9.25 -8.46875 10.519531 -7.085938 12.15625 -6.109375 C 13.789062 -5.140625 15.707031 -4.65625 17.90625 -4.65625 C 19.488281 -4.65625 21.070312 -5.054688 22.65625 -5.859375 C 24.238281 -6.671875 25.5 -7.648438 26.4375 -8.796875 C 27.113281 -9.609375 27.847656 -10.070312 28.640625 -10.1875 C 29.429688 -10.300781 30.117188 -10.164062 30.703125 -9.78125 C 31.296875 -9.394531 31.648438 -8.847656 31.765625 -8.140625 C 31.890625 -7.429688 31.648438 -6.640625 31.046875 -5.765625 C 30.140625 -4.484375 28.957031 -3.367188 27.5 -2.421875 C 26.050781 -1.484375 24.484375 -0.757812 22.796875 -0.25 C 21.117188 0.25 19.453125 0.5 17.796875 0.5 C 14.460938 0.5 11.546875 -0.203125 9.046875 -1.609375 C 6.554688 -3.023438 4.617188 -5.003906 3.234375 -7.546875 C 1.847656 -10.097656 1.15625 -13.078125 1.15625 -16.484375 C 1.15625 -19.753906 1.878906 -22.601562 3.328125 -25.03125 C 4.785156 -27.457031 6.769531 -29.34375 9.28125 -30.6875 C 11.789062 -32.039062 14.597656 -32.71875 17.703125 -32.71875 Z M 17.703125 -32.71875 "/></g></g></g><g fill="#373643" fill-opacity="1"><g transform="translate(105.89732, 212.426718)"><g><path d="M 14.453125 -26.234375 C 17.148438 -26.234375 19.507812 -25.671875 21.53125 -24.546875 C 23.5625 -23.421875 25.128906 -21.84375 26.234375 -19.8125 C 27.347656 -17.789062 27.90625 -15.429688 27.90625 -12.734375 C 27.875 -10.109375 27.289062 -7.800781 26.15625 -5.8125 C 25.03125 -3.820312 23.460938 -2.269531 21.453125 -1.15625 C 19.453125 -0.0507812 17.117188 0.5 14.453125 0.5 C 11.828125 0.5 9.503906 -0.0507812 7.484375 -1.15625 C 5.460938 -2.269531 3.882812 -3.820312 2.75 -5.8125 C 1.625 -7.800781 1.046875 -10.109375 1.015625 -12.734375 C 1.015625 -15.429688 1.578125 -17.789062 2.703125 -19.8125 C 3.835938 -21.84375 5.414062 -23.421875 7.4375 -24.546875 C 9.457031 -25.671875 11.796875 -26.234375 14.453125 -26.234375 Z M 14.453125 -4.546875 C 16.753906 -4.546875 18.585938 -5.300781 19.953125 -6.8125 C 21.316406 -8.332031 22 -10.304688 22 -12.734375 C 22 -15.234375 21.316406 -17.265625 19.953125 -18.828125 C 18.585938 -20.398438 16.753906 -21.1875 14.453125 -21.1875 C 12.203125 -21.1875 10.382812 -20.398438 9 -18.828125 C 7.613281 -17.265625 6.921875 -15.234375 6.921875 -12.734375 C 6.921875 -10.304688 7.613281 -8.332031 9 -6.8125 C 10.382812 -5.300781 12.203125 -4.546875 14.453125 -4.546875 Z M 14.453125 -4.546875 "/></g></g></g><g fill="#373643" fill-opacity="1"><g transform="translate(133.956263, 212.426718)"><g><path d="M 23.5625 -32.71875 C 24.269531 -32.71875 24.9375 -32.515625 25.5625 -32.109375 C 26.1875 -31.703125 26.5 -31.0625 26.5 -30.1875 L 26.5 -2.578125 C 26.5 -0.859375 25.519531 0 23.5625 0 C 21.8125 0 20.898438 -0.804688 20.828125 -2.421875 C 19.753906 -1.484375 18.539062 -0.769531 17.1875 -0.28125 C 15.84375 0.207031 14.5625 0.453125 13.34375 0.453125 C 10.820312 0.453125 8.640625 -0.117188 6.796875 -1.265625 C 4.960938 -2.410156 3.554688 -4.007812 2.578125 -6.0625 C 1.597656 -8.125 1.109375 -10.484375 1.109375 -13.140625 C 1.109375 -15.703125 1.628906 -17.960938 2.671875 -19.921875 C 3.722656 -21.878906 5.179688 -23.421875 7.046875 -24.546875 C 8.921875 -25.671875 11.085938 -26.234375 13.546875 -26.234375 C 14.660156 -26.234375 15.859375 -26.015625 17.140625 -25.578125 C 18.421875 -25.140625 19.617188 -24.484375 20.734375 -23.609375 L 20.734375 -30.1875 C 20.734375 -31.0625 21.023438 -31.703125 21.609375 -32.109375 C 22.203125 -32.515625 22.851562 -32.71875 23.5625 -32.71875 Z M 13.5 -4.65625 C 15.1875 -4.65625 16.710938 -5.03125 18.078125 -5.78125 C 19.441406 -6.539062 20.359375 -7.644531 20.828125 -9.09375 L 20.78125 -16.890625 C 20.207031 -18.265625 19.269531 -19.316406 17.96875 -20.046875 C 16.675781 -20.773438 15.335938 -21.140625 13.953125 -21.140625 C 11.828125 -21.140625 10.113281 -20.367188 8.8125 -18.828125 C 7.519531 -17.296875 6.875 -15.382812 6.875 -13.09375 C 6.875 -10.632812 7.476562 -8.613281 8.6875 -7.03125 C 9.90625 -5.445312 11.507812 -4.65625 13.5 -4.65625 Z M 13.5 -4.65625 "/></g></g></g><g fill="#373643" fill-opacity="1"><g transform="translate(163.228578, 212.426718)"><g><path d="M 14.453125 -4.5 C 15.429688 -4.5 16.394531 -4.632812 17.34375 -4.90625 C 18.289062 -5.175781 19.164062 -5.628906 19.96875 -6.265625 C 20.75 -6.972656 21.507812 -7.300781 22.25 -7.25 C 22.988281 -7.207031 23.601562 -6.941406 24.09375 -6.453125 C 24.582031 -5.960938 24.828125 -5.351562 24.828125 -4.625 C 24.828125 -3.90625 24.472656 -3.207031 23.765625 -2.53125 C 22.585938 -1.382812 21.1875 -0.582031 19.5625 -0.125 C 17.945312 0.332031 16.296875 0.539062 14.609375 0.5 C 11.984375 0.5 9.664062 -0.0351562 7.65625 -1.109375 C 5.65625 -2.191406 4.085938 -3.691406 2.953125 -5.609375 C 1.828125 -7.535156 1.265625 -9.757812 1.265625 -12.28125 C 1.265625 -15.050781 1.800781 -17.476562 2.875 -19.5625 C 3.957031 -21.65625 5.484375 -23.289062 7.453125 -24.46875 C 9.429688 -25.644531 11.765625 -26.234375 14.453125 -26.234375 C 17.148438 -26.234375 19.441406 -25.6875 21.328125 -24.59375 C 23.222656 -23.5 24.664062 -21.96875 25.65625 -20 C 26.65625 -18.03125 27.15625 -15.726562 27.15625 -13.09375 C 27.15625 -12.25 26.984375 -11.53125 26.640625 -10.9375 C 26.304688 -10.351562 25.414062 -10.0625 23.96875 -10.0625 L 7.125 -10.0625 C 7.601562 -8.40625 8.5 -7.0625 9.8125 -6.03125 C 11.125 -5.007812 12.671875 -4.5 14.453125 -4.5 Z M 14.515625 -21.234375 C 12.554688 -21.234375 10.921875 -20.617188 9.609375 -19.390625 C 8.296875 -18.160156 7.453125 -16.550781 7.078125 -14.5625 L 21.796875 -14.5625 C 21.628906 -16.550781 20.96875 -18.160156 19.8125 -19.390625 C 18.664062 -20.617188 16.898438 -21.234375 14.515625 -21.234375 Z M 14.515625 -21.234375 "/></g></g></g><g fill="#373643" fill-opacity="1"><g transform="translate(192.60201, 212.426718)"><g><path d="M -0.203125 -28.46875 C -0.503906 -29.175781 -0.53125 -29.816406 -0.28125 -30.390625 C -0.03125 -30.960938 0.363281 -31.40625 0.90625 -31.71875 C 1.445312 -32.039062 2.019531 -32.203125 2.625 -32.203125 C 3.238281 -32.203125 3.765625 -32.082031 4.203125 -31.84375 C 4.640625 -31.613281 4.992188 -31.210938 5.265625 -30.640625 L 16.375 -9.296875 L 27.296875 -30.546875 C 27.867188 -31.648438 28.726562 -32.203125 29.875 -32.203125 C 30.488281 -32.203125 31.070312 -32.035156 31.625 -31.703125 C 32.1875 -31.367188 32.582031 -30.90625 32.8125 -30.3125 C 33.050781 -29.71875 32.96875 -29.019531 32.5625 -28.21875 L 19.015625 -1.5625 C 18.398438 -0.519531 17.519531 0 16.375 0 C 15.84375 0 15.320312 -0.132812 14.8125 -0.40625 C 14.3125 -0.675781 13.925781 -1.097656 13.65625 -1.671875 Z M -0.203125 -28.46875 "/></g></g></g><g fill="#373643" fill-opacity="1"><g transform="translate(225.261656, 212.426718)"><g><path d="M 14.453125 -4.5 C 15.429688 -4.5 16.394531 -4.632812 17.34375 -4.90625 C 18.289062 -5.175781 19.164062 -5.628906 19.96875 -6.265625 C 20.75 -6.972656 21.507812 -7.300781 22.25 -7.25 C 22.988281 -7.207031 23.601562 -6.941406 24.09375 -6.453125 C 24.582031 -5.960938 24.828125 -5.351562 24.828125 -4.625 C 24.828125 -3.90625 24.472656 -3.207031 23.765625 -2.53125 C 22.585938 -1.382812 21.1875 -0.582031 19.5625 -0.125 C 17.945312 0.332031 16.296875 0.539062 14.609375 0.5 C 11.984375 0.5 9.664062 -0.0351562 7.65625 -1.109375 C 5.65625 -2.191406 4.085938 -3.691406 2.953125 -5.609375 C 1.828125 -7.535156 1.265625 -9.757812 1.265625 -12.28125 C 1.265625 -15.050781 1.800781 -17.476562 2.875 -19.5625 C 3.957031 -21.65625 5.484375 -23.289062 7.453125 -24.46875 C 9.429688 -25.644531 11.765625 -26.234375 14.453125 -26.234375 C 17.148438 -26.234375 19.441406 -25.6875 21.328125 -24.59375 C 23.222656 -23.5 24.664062 -21.96875 25.65625 -20 C 26.65625 -18.03125 27.15625 -15.726562 27.15625 -13.09375 C 27.15625 -12.25 26.984375 -11.53125 26.640625 -10.9375 C 26.304688 -10.351562 25.414062 -10.0625 23.96875 -10.0625 L 7.125 -10.0625 C 7.601562 -8.40625 8.5 -7.0625 9.8125 -6.03125 C 11.125 -5.007812 12.671875 -4.5 14.453125 -4.5 Z M 14.515625 -21.234375 C 12.554688 -21.234375 10.921875 -20.617188 9.609375 -19.390625 C 8.296875 -18.160156 7.453125 -16.550781 7.078125 -14.5625 L 21.796875 -14.5625 C 21.628906 -16.550781 20.96875 -18.160156 19.8125 -19.390625 C 18.664062 -20.617188 16.898438 -21.234375 14.515625 -21.234375 Z M 14.515625 -21.234375 "/></g></g></g><g fill="#373643" fill-opacity="1"><g transform="translate(254.635095, 212.426718)"><g><path d="M 13.65625 -25.734375 C 14.5625 -25.734375 15.285156 -25.539062 15.828125 -25.15625 C 16.367188 -24.769531 16.640625 -24.140625 16.640625 -23.265625 C 16.640625 -22.453125 16.367188 -21.804688 15.828125 -21.328125 C 15.285156 -20.859375 14.5625 -20.625 13.65625 -20.625 C 11.53125 -20.625 10.035156 -19.863281 9.171875 -18.34375 C 8.316406 -16.832031 7.890625 -14.78125 7.890625 -12.1875 L 7.890625 -2.578125 C 7.890625 -1.835938 7.617188 -1.222656 7.078125 -0.734375 C 6.535156 -0.242188 5.878906 0 5.109375 0 C 4.234375 0 3.523438 -0.242188 2.984375 -0.734375 C 2.441406 -1.222656 2.171875 -1.835938 2.171875 -2.578125 L 2.171875 -23.15625 C 2.171875 -23.96875 2.484375 -24.597656 3.109375 -25.046875 C 3.734375 -25.503906 4.398438 -25.734375 5.109375 -25.734375 C 5.816406 -25.734375 6.457031 -25.515625 7.03125 -25.078125 C 7.601562 -24.640625 7.890625 -24 7.890625 -23.15625 L 7.890625 -22.859375 C 8.628906 -23.835938 9.488281 -24.5625 10.46875 -25.03125 C 11.445312 -25.5 12.507812 -25.734375 13.65625 -25.734375 Z M 13.65625 -25.734375 "/></g></g></g><g fill="#373643" fill-opacity="1"><g transform="translate(269.751437, 212.426718)"><g><path d="M 23.515625 -25.734375 C 24.390625 -25.734375 25.085938 -25.488281 25.609375 -25 C 26.128906 -24.507812 26.390625 -23.878906 26.390625 -23.109375 L 26.390625 -2.625 C 26.390625 -1.851562 26.128906 -1.222656 25.609375 -0.734375 C 25.085938 -0.242188 24.390625 0 23.515625 0 C 22.671875 0 22.007812 -0.191406 21.53125 -0.578125 C 21.0625 -0.960938 20.78125 -1.476562 20.6875 -2.125 C 19.53125 -1.21875 18.242188 -0.550781 16.828125 -0.125 C 15.421875 0.289062 14.078125 0.5 12.796875 0.5 C 10.367188 0.5 8.269531 -0.0507812 6.5 -1.15625 C 4.726562 -2.269531 3.367188 -3.835938 2.421875 -5.859375 C 1.484375 -7.890625 1.015625 -10.25 1.015625 -12.9375 C 1.015625 -15.570312 1.535156 -17.882812 2.578125 -19.875 C 3.617188 -21.863281 5.078125 -23.421875 6.953125 -24.546875 C 8.828125 -25.671875 10.992188 -26.234375 13.453125 -26.234375 C 14.523438 -26.234375 15.71875 -26.03125 17.03125 -25.625 C 18.351562 -25.226562 19.570312 -24.59375 20.6875 -23.71875 C 20.8125 -24.320312 21.109375 -24.804688 21.578125 -25.171875 C 22.054688 -25.546875 22.703125 -25.734375 23.515625 -25.734375 Z M 13.40625 -4.59375 C 14.882812 -4.59375 16.3125 -4.921875 17.6875 -5.578125 C 19.070312 -6.242188 20.050781 -7.21875 20.625 -8.5 L 20.625 -17.234375 C 19.988281 -18.484375 19.03125 -19.445312 17.75 -20.125 C 16.46875 -20.800781 15.171875 -21.140625 13.859375 -21.140625 C 11.734375 -21.140625 10.019531 -20.363281 8.71875 -18.8125 C 7.425781 -17.257812 6.78125 -15.285156 6.78125 -12.890625 C 6.78125 -10.398438 7.382812 -8.394531 8.59375 -6.875 C 9.8125 -5.351562 11.414062 -4.59375 13.40625 -4.59375 Z M 13.40625 -4.59375 "/></g></g></g></svg>